STARTFONT 2.1
COMMENT CVS:Version $Id 1.5
COMMENT
COMMENT (C) CENA/J.L. Vinot, 2002, CENA (Centre d'Etudes de la Navigation Aťrienne)
COMMENT This software is free software; you can redistribute it and/or modify it 
COMMENT under the terms of the GNU Lesser General Public License as published by the Free Software Foundation: 
COMMENT either version 2 of the License, or (at your option) any later version.
COMMENT 
COMMENT This software is distributed in the hope that it will be useful, but WITHOUT ANY WARRANTY; 
COMMENT without even the implied warranty of MERCHANTABILITY or FITNESS FOR A PARTICULAR PURPOSE.  
COMMENT See the GNU Lesser General Public License for more details.
COMMENT 
COMMENT You should have received a copy of the GNU Lesser General Public License along with this software; 
COMMENT if not, write to the Free Software Foundation, Inc., 59 Temple Place - Suite 330, Boston, MA  02111-1307, USA.
COMMENT Please refer to http://www.gnu.org/copyleft/gpl.html
COMMENT 
COMMENT This font has been originally designed by CENA/France for the specific needs of Air Traffic Control. 
COMMENT For example, it must offer good legibility and avoid any confusion between character shapes. 
COMMENT CENA would like to preserve its qualities. If you have any specific need, you can modify this font, 
COMMENT but we would like you to change its name to avoid any confusion between your new font and the original one designed by CENA.
COMMENT Note however, that as implied in the LGPL licence, you must credit CENA for the original work. 
COMMENT Finally, CENA would appreciate it if you send back any enhancement or extension made to the original work. 
COMMENT This statement must be fully included with any further distribution of the font.
COMMENT 
COMMENT to contact us: email to:  pii-contact@cena.fr
COMMENT write to: CENA, 7 avenue Edouard Belin, 31400 Toulouse, France 
FONT -CenaPii-Bleriot Radar-Medium-R-Normal--22-220-75-75-P-129-ISO8859-15
SIZE 22 72 72

STARTCHAR gcid14
ENCODING 20
SWIDTH 636 0
DWIDTH 14 0
BBX 11 3 1 7
BITMAP
FFE0
FFE0
FFE0
ENDCHAR
STARTCHAR gcid15
ENCODING 21
SWIDTH 681 0
DWIDTH 15 0
BBX 13 13 1 2
BITMAP
4000
E000
7000
3800
1C08
0E18
0738
03F8
01F8
01F8
03F8
07F8
0FF8
ENDCHAR
STARTCHAR gcid16
ENCODING 22
SWIDTH 681 0
DWIDTH 15 0
BBX 13 13 1 0
BITMAP
0FF8
07F8
03F8
01F8
01F8
03F8
0738
0E18
1C08
3800
7000
E000
4000
ENDCHAR
STARTCHAR space
ENCODING 32
SWIDTH 681 0
DWIDTH 15 0
BBX 0 0 0 0
BITMAP
ENDCHAR
STARTCHAR exclam
ENCODING 33
SWIDTH 318 0
DWIDTH 7 0
BBX 3 16 2 0
BITMAP
E0
E0
E0
E0
E0
E0
E0
E0
E0
E0
E0
40
00
40
E0
E0
ENDCHAR
STARTCHAR quotedbl
ENCODING 34
SWIDTH 454 0
DWIDTH 10 0
BBX 6 5 2 11
BITMAP
CC
CC
CC
CC
CC
ENDCHAR
STARTCHAR numbersign
ENCODING 35
SWIDTH 727 0
DWIDTH 16 0
BBX 14 12 1 1
BITMAP
0630
0630
7FFC
7FFC
0C60
0C60
18C0
18C0
FFF8
FFF8
3180
3180
ENDCHAR
STARTCHAR dollar
ENCODING 36
SWIDTH 590 0
DWIDTH 13 0
BBX 10 20 2 -2
BITMAP
0C00
0C00
3F00
7F80
ED80
EC80
EC00
FC00
7C00
3E00
1F00
0F80
0FC0
0DC0
CDC0
EDC0
FF80
3F00
0C00
0C00
ENDCHAR
STARTCHAR percent
ENCODING 37
SWIDTH 772 0
DWIDTH 17 0
BBX 15 16 1 0
BITMAP
3038
7830
CC70
CC60
CCE0
78C0
31C0
0180
0380
0318
073C
0666
0E66
0C66
1C3C
1818
ENDCHAR
STARTCHAR ampersand
ENCODING 38
SWIDTH 772 0
DWIDTH 17 0
BBX 15 16 2 0
BITMAP
0F00
1F80
39C0
30C0
39C0
3B80
1F00
1E00
3F00
7780
E3D8
E1F8
E0F0
71F8
7FBC
1E1E
ENDCHAR
STARTCHAR quotesingle
ENCODING 39
SWIDTH 272 0
DWIDTH 6 0
BBX 2 5 2 11
BITMAP
C0
C0
C0
C0
C0
ENDCHAR
STARTCHAR parenleft
ENCODING 40
SWIDTH 409 0
DWIDTH 9 0
BBX 6 20 2 -3
BITMAP
0C
18
30
70
70
60
E0
E0
E0
E0
E0
E0
E0
E0
60
70
70
30
18
0C
ENDCHAR
STARTCHAR parenright
ENCODING 41
SWIDTH 409 0
DWIDTH 9 0
BBX 6 20 2 -3
BITMAP
C0
60
30
38
38
18
1C
1C
1C
1C
1C
1C
1C
1C
18
38
38
30
60
C0
ENDCHAR
STARTCHAR asterisk
ENCODING 42
SWIDTH 590 0
DWIDTH 13 0
BBX 10 9 1 7
BITMAP
0C00
CCC0
6D80
3F00
1E00
3F00
6D80
CCC0
0C00
ENDCHAR
STARTCHAR plus
ENCODING 43
SWIDTH 636 0
DWIDTH 14 0
BBX 11 10 1 1
BITMAP
0E00
0E00
0E00
0E00
FFE0
FFE0
0E00
0E00
0E00
0E00
ENDCHAR
STARTCHAR comma
ENCODING 44
SWIDTH 363 0
DWIDTH 8 0
BBX 5 5 0 -2
BITMAP
38
38
70
60
C0
ENDCHAR
STARTCHAR hyphen
ENCODING 45
SWIDTH 590 0
DWIDTH 13 0
BBX 8 3 2 4
BITMAP
FF
FF
FF
ENDCHAR
STARTCHAR period
ENCODING 46
SWIDTH 363 0
DWIDTH 8 0
BBX 3 3 2 0
BITMAP
E0
E0
E0
ENDCHAR
STARTCHAR slash
ENCODING 47
SWIDTH 545 0
DWIDTH 12 0
BBX 12 19 0 -2
BITMAP
0070
0060
00E0
00C0
01C0
0180
0380
0300
0700
0600
0E00
0C00
1C00
1800
3800
3000
7000
6000
E000
ENDCHAR
STARTCHAR zero
ENCODING 48
SWIDTH 681 0
DWIDTH 15 0
BBX 12 16 2 0
BITMAP
0F00
3FC0
70E0
6160
E170
E370
E370
E670
E670
EC70
EC70
E870
7060
79E0
3FC0
0F00
ENDCHAR
STARTCHAR one
ENCODING 49
SWIDTH 590 0
DWIDTH 13 0
BBX 8 16 2 0
BITMAP
03
07
0F
1F
3F
77
E7
C7
07
07
07
07
07
07
07
07
ENDCHAR
STARTCHAR two
ENCODING 50
SWIDTH 681 0
DWIDTH 15 0
BBX 12 16 2 0
BITMAP
1F00
7FC0
71C0
E0E0
00E0
00E0
00E0
01C0
03C0
0780
0F00
1E00
3C00
7800
FFF0
FFF0
ENDCHAR
STARTCHAR three
ENCODING 51
SWIDTH 681 0
DWIDTH 15 0
BBX 12 16 2 0
BITMAP
7FF0
7FE0
01C0
0380
0700
0E00
1F80
07E0
01E0
0070
0070
4070
6070
F0E0
7FE0
1F80
ENDCHAR
STARTCHAR four
ENCODING 52
SWIDTH 681 0
DWIDTH 15 0
BBX 13 16 2 0
BITMAP
0380
0700
0700
0E00
0E00
1C20
1C60
38E0
38E0
70E0
70E0
FFF8
FFF8
00E0
00E0
00E0
ENDCHAR
STARTCHAR five
ENCODING 53
SWIDTH 681 0
DWIDTH 15 0
BBX 12 16 2 0
BITMAP
3FE0
3FE0
3800
3800
3800
3F00
3FC0
31E0
00F0
0070
0070
0070
6070
F0E0
7FE0
1F80
ENDCHAR
STARTCHAR six
ENCODING 54
SWIDTH 681 0
DWIDTH 15 0
BBX 12 16 2 0
BITMAP
0700
0E00
1C00
3800
3800
7000
7F80
FFE0
F0E0
E070
E070
E070
E070
70E0
7FE0
1F80
ENDCHAR
STARTCHAR seven
ENCODING 55
SWIDTH 636 0
DWIDTH 14 0
BBX 12 16 2 0
BITMAP
FFF0
FFE0
00E0
01C0
0180
0380
0300
0700
0700
0E00
0E00
0E00
1C00
1C00
1C00
1C00
ENDCHAR
STARTCHAR eight
ENCODING 56
SWIDTH 681 0
DWIDTH 15 0
BBX 12 16 2 0
BITMAP
0F00
3FC0
71C0
70E0
78E0
3DC0
1F80
3F80
77C0
E1E0
E0F0
E070
E070
70F0
7FE0
1F80
ENDCHAR
STARTCHAR nine
ENCODING 57
SWIDTH 681 0
DWIDTH 15 0
BBX 12 16 2 0
BITMAP
1F80
7FE0
70E0
E070
E070
E070
E070
70F0
7FF0
1FE0
00E0
01C0
01C0
0380
0700
0E00
ENDCHAR
STARTCHAR colon
ENCODING 58
SWIDTH 363 0
DWIDTH 8 0
BBX 3 12 2 0
BITMAP
E0
E0
E0
00
00
00
00
00
00
E0
E0
E0
ENDCHAR
STARTCHAR semicolon
ENCODING 59
SWIDTH 363 0
DWIDTH 8 0
BBX 5 14 0 -2
BITMAP
38
38
38
00
00
00
00
00
00
38
38
70
60
C0
ENDCHAR
STARTCHAR less
ENCODING 60
SWIDTH 454 0
DWIDTH 10 0
BBX 8 12 1 0
BITMAP
07
0E
1C
38
70
E0
E0
70
38
1C
0E
07
ENDCHAR
STARTCHAR equal
ENCODING 61
SWIDTH 500 0
DWIDTH 11 0
BBX 9 8 1 2
BITMAP
FF80
FF80
0000
0000
0000
0000
FF80
FF80
ENDCHAR
STARTCHAR greater
ENCODING 62
SWIDTH 454 0
DWIDTH 10 0
BBX 8 12 1 0
BITMAP
E0
70
38
1C
0E
07
07
0E
1C
38
70
E0
ENDCHAR
STARTCHAR question
ENCODING 63
SWIDTH 590 0
DWIDTH 13 0
BBX 11 16 1 0
BITMAP
0F80
3FC0
71E0
E0E0
E0E0
00E0
01C0
0380
0700
0E00
0E00
0E00
0000
0400
0E00
0E00
ENDCHAR
STARTCHAR at
ENCODING 64
SWIDTH 909 0
DWIDTH 20 0
BBX 19 19 1 -3
BITMAP
01F800
0FFE00
1E0780
380180
7000C0
607CC0
E1FC60
C39C60
C71C60
C71C60
C61C60
C71C60
E73C60
63FCC0
71EFC0
300300
1C0000
0F0600
01F800
ENDCHAR
STARTCHAR A
ENCODING 65
SWIDTH 681 0
DWIDTH 15 0
BBX 14 16 1 0
BITMAP
0700
0700
0780
0F80
0DC0
0DC0
1CE0
18E0
18E0
3070
3FF0
7FF8
7038
6038
E01C
E01C
ENDCHAR
STARTCHAR B
ENCODING 66
SWIDTH 636 0
DWIDTH 14 0
BBX 11 16 2 0
BITMAP
FE00
FF80
E380
E1C0
E1C0
E1C0
E380
FF00
FF80
E1C0
E0E0
E0E0
E0E0
E1E0
FFC0
FF00
ENDCHAR
STARTCHAR C
ENCODING 67
SWIDTH 636 0
DWIDTH 14 0
BBX 12 16 2 0
BITMAP
07E0
1FF0
3C20
7000
7000
E000
E000
E000
E000
E000
E000
7000
7000
3C20
1FF0
07E0
ENDCHAR
STARTCHAR D
ENCODING 68
SWIDTH 727 0
DWIDTH 16 0
BBX 13 16 2 0
BITMAP
FF00
FFC0
E1E0
E070
E070
E038
E038
E038
E038
E038
E038
E070
E070
E1E0
FFC0
FF00
ENDCHAR
STARTCHAR E
ENCODING 69
SWIDTH 590 0
DWIDTH 13 0
BBX 10 16 2 0
BITMAP
FF80
FF80
E000
E000
E000
E000
E000
FF00
FF00
E000
E000
E000
E000
E000
FFC0
FFC0
ENDCHAR
STARTCHAR F
ENCODING 70
SWIDTH 500 0
DWIDTH 11 0
BBX 9 16 2 0
BITMAP
FF80
FF80
E000
E000
E000
E000
E000
FF00
FF00
E000
E000
E000
E000
E000
E000
E000
ENDCHAR
STARTCHAR G
ENCODING 71
SWIDTH 727 0
DWIDTH 16 0
BBX 13 16 2 0
BITMAP
07E0
1FF0
3C20
7000
7000
E000
E000
E3F8
E3F8
E038
E038
7038
7038
3C38
1FF8
07F8
ENDCHAR
STARTCHAR H
ENCODING 72
SWIDTH 681 0
DWIDTH 15 0
BBX 12 16 2 0
BITMAP
E070
E070
E070
E070
E070
E070
E070
FFF0
FFF0
E070
E070
E070
E070
E070
E070
E070
ENDCHAR
STARTCHAR I
ENCODING 73
SWIDTH 363 0
DWIDTH 8 0
BBX 3 16 3 0
BITMAP
E0
E0
E0
E0
E0
E0
E0
E0
E0
E0
E0
E0
E0
E0
E0
E0
ENDCHAR
STARTCHAR J
ENCODING 74
SWIDTH 409 0
DWIDTH 9 0
BBX 7 16 1 0
BITMAP
0E
0E
0E
0E
0E
0E
0E
0E
0E
0E
0E
0E
4E
EE
FE
7C
ENDCHAR
STARTCHAR K
ENCODING 75
SWIDTH 636 0
DWIDTH 14 0
BBX 13 16 2 0
BITMAP
E0E0
E1C0
E380
E700
EE00
FC00
F800
F800
FC00
FE00
EF00
E780
E3C0
E1E0
E0F0
E078
ENDCHAR
STARTCHAR L
ENCODING 76
SWIDTH 454 0
DWIDTH 10 0
BBX 8 16 2 0
BITMAP
E0
E0
E0
E0
E0
E0
E0
E0
E0
E0
E0
E0
E0
E0
FF
FF
ENDCHAR
STARTCHAR M
ENCODING 77
SWIDTH 818 0
DWIDTH 18 0
BBX 15 16 2 0
BITMAP
C006
E00E
E00E
F01E
F01E
F83E
F83E
FC7E
EC6E
EEEE
E6CE
E7CE
E38E
E38E
E10E
E00E
ENDCHAR
STARTCHAR N
ENCODING 78
SWIDTH 681 0
DWIDTH 15 0
BBX 12 16 2 0
BITMAP
E070
F070
F070
F870
F870
FC70
EC70
EE70
E670
E770
E370
E3F0
E1F0
E1F0
E0F0
E070
ENDCHAR
STARTCHAR O
ENCODING 79
SWIDTH 863 0
DWIDTH 19 0
BBX 16 16 2 0
BITMAP
07E0
1FF8
3C3C
700E
700E
E007
E007
E007
E007
E007
E007
700E
700E
3C3C
1FF8
07E0
ENDCHAR
STARTCHAR P
ENCODING 80
SWIDTH 590 0
DWIDTH 13 0
BBX 11 16 2 0
BITMAP
FE00
FF80
E3C0
E1C0
E0E0
E0E0
E0E0
E1C0
E3C0
FF80
FE00
E000
E000
E000
E000
E000
ENDCHAR
STARTCHAR Q
ENCODING 81
SWIDTH 863 0
DWIDTH 19 0
BBX 17 16 2 0
BITMAP
07E000
1FF800
3C3C00
700E00
700E00
E00700
E00700
E00700
E7C700
EFE700
F8F700
707A00
703E00
3C7E00
1FFF00
07E780
ENDCHAR
STARTCHAR R
ENCODING 82
SWIDTH 636 0
DWIDTH 14 0
BBX 13 16 2 0
BITMAP
FF00
FFC0
E1E0
E0E0
E0E0
E0E0
E1C0
E3C0
FF80
FE00
EF00
E780
E3C0
E1E0
E0F0
E078
ENDCHAR
STARTCHAR S
ENCODING 83
SWIDTH 590 0
DWIDTH 13 0
BBX 12 16 1 0
BITMAP
0F80
3FC0
38E0
7040
7000
3C00
3F00
0FC0
03E0
00F0
0070
0070
E070
F0E0
7FE0
1F80
ENDCHAR
STARTCHAR T
ENCODING 84
SWIDTH 590 0
DWIDTH 13 0
BBX 11 16 1 0
BITMAP
FFE0
FFE0
0E00
0E00
0E00
0E00
0E00
0E00
0E00
0E00
0E00
0E00
0E00
0E00
0E00
0E00
ENDCHAR
STARTCHAR U
ENCODING 85
SWIDTH 681 0
DWIDTH 15 0
BBX 12 16 2 0
BITMAP
E070
E070
E070
E070
E070
E070
E070
E070
E070
E070
E070
E070
E070
70E0
7FE0
1F80
ENDCHAR
STARTCHAR V
ENCODING 86
SWIDTH 681 0
DWIDTH 15 0
BBX 14 16 1 0
BITMAP
E01C
E01C
7018
7038
7030
3830
3870
3860
1CE0
1CC0
1CC0
0FC0
0F80
0F80
0700
0700
ENDCHAR
STARTCHAR W
ENCODING 87
SWIDTH 909 0
DWIDTH 20 0
BBX 19 16 1 0
BITMAP
E040E0
E0E0E0
60E0C0
70E0C0
70F1C0
71F1C0
31F180
39B180
39B980
3BBB80
1B3B00
1F1B00
1F1F00
1F1F00
0E0E00
0E0E00
ENDCHAR
STARTCHAR X
ENCODING 88
SWIDTH 636 0
DWIDTH 14 0
BBX 12 16 2 0
BITMAP
E070
E0E0
70C0
71C0
3980
1F80
1F00
0E00
0F00
1F80
1F80
39C0
31C0
70E0
6070
E070
ENDCHAR
STARTCHAR Y
ENCODING 89
SWIDTH 636 0
DWIDTH 14 0
BBX 13 16 1 0
BITMAP
E038
E030
7070
7060
38E0
38C0
1DC0
0F80
0F00
0700
0700
0700
0700
0700
0700
0700
ENDCHAR
STARTCHAR Z
ENCODING 90
SWIDTH 636 0
DWIDTH 14 0
BBX 12 16 2 0
BITMAP
FFE0
FFC0
01C0
0380
0380
0700
0700
0E00
0E00
1C00
1C00
3800
3800
7000
7FF0
FFF0
ENDCHAR
STARTCHAR bracketleft
ENCODING 91
SWIDTH 409 0
DWIDTH 9 0
BBX 5 20 3 -3
BITMAP
F8
E0
E0
E0
E0
E0
E0
E0
E0
E0
E0
E0
E0
E0
E0
E0
E0
E0
E0
F8
ENDCHAR
STARTCHAR backslash
ENCODING 92
SWIDTH 545 0
DWIDTH 12 0
BBX 12 19 0 -2
BITMAP
E000
6000
7000
3000
3800
1800
1C00
0C00
0E00
0600
0700
0300
0380
0180
01C0
00C0
00E0
0060
0070
ENDCHAR
STARTCHAR bracketright
ENCODING 93
SWIDTH 409 0
DWIDTH 9 0
BBX 5 20 1 -3
BITMAP
F8
38
38
38
38
38
38
38
38
38
38
38
38
38
38
38
38
38
38
F8
ENDCHAR
STARTCHAR asciicircum
ENCODING 94
SWIDTH 590 0
DWIDTH 13 0
BBX 10 5 2 11
BITMAP
0C00
1E00
3300
6180
C0C0
ENDCHAR
STARTCHAR underscore
ENCODING 95
SWIDTH 681 0
DWIDTH 15 0
BBX 15 2 0 -4
BITMAP
FFFE
FFFE
ENDCHAR
STARTCHAR a
ENCODING 97
SWIDTH 590 0
DWIDTH 13 0
BBX 10 12 2 0
BITMAP
3F00
7F80
01C0
01C0
0FC0
3FC0
71C0
E1C0
E1C0
E3C0
7FC0
3DC0
ENDCHAR
STARTCHAR b
ENCODING 98
SWIDTH 636 0
DWIDTH 14 0
BBX 11 16 2 0
BITMAP
E000
E000
E000
E000
EF00
FFC0
F1C0
E0E0
E0E0
E0E0
E0E0
E0E0
E0E0
F1C0
FFC0
EF00
ENDCHAR
STARTCHAR c
ENCODING 99
SWIDTH 545 0
DWIDTH 12 0
BBX 10 12 2 0
BITMAP
0F80
3FC0
7880
7000
E000
E000
E000
E000
7000
7880
3FC0
0F80
ENDCHAR
STARTCHAR d
ENCODING 100
SWIDTH 636 0
DWIDTH 14 0
BBX 11 16 2 0
BITMAP
00E0
00E0
00E0
00E0
1EE0
7FE0
71E0
E0E0
E0E0
E0E0
E0E0
E0E0
E0E0
71E0
7FE0
1EE0
ENDCHAR
STARTCHAR e
ENCODING 101
SWIDTH 636 0
DWIDTH 14 0
BBX 11 12 2 0
BITMAP
1F00
3FC0
71C0
E0E0
E0E0
E7E0
FF80
F800
E000
70E0
3FC0
1F00
ENDCHAR
STARTCHAR f
ENCODING 102
SWIDTH 454 0
DWIDTH 10 0
BBX 10 16 1 0
BITMAP
0F80
1FC0
3CC0
3800
3800
FF00
FF00
3800
3800
3800
3800
3800
3800
3800
3800
3800
ENDCHAR
STARTCHAR g
ENCODING 103
SWIDTH 636 0
DWIDTH 14 0
BBX 11 16 2 -4
BITMAP
0FE0
3FE0
78E0
70E0
E0E0
E0E0
E0E0
E0E0
E0E0
71E0
7FE0
1EE0
00E0
00E0
1FC0
1F80
ENDCHAR
STARTCHAR h
ENCODING 104
SWIDTH 636 0
DWIDTH 14 0
BBX 11 16 2 0
BITMAP
E000
E000
E000
E000
EF00
FFC0
F1C0
E0E0
E0E0
E0E0
E0E0
E0E0
E0E0
E0E0
E0E0
E0E0
ENDCHAR
STARTCHAR i
ENCODING 105
SWIDTH 318 0
DWIDTH 7 0
BBX 3 17 3 0
BITMAP
E0
E0
40
00
00
20
60
E0
E0
E0
E0
E0
E0
E0
E0
E0
E0
ENDCHAR
STARTCHAR j
ENCODING 106
SWIDTH 318 0
DWIDTH 7 0
BBX 6 21 0 -4
BITMAP
1C
1C
08
00
00
04
0C
1C
1C
1C
1C
1C
1C
1C
1C
1C
1C
1C
38
F8
E0
ENDCHAR
STARTCHAR k
ENCODING 107
SWIDTH 590 0
DWIDTH 13 0
BBX 11 16 2 0
BITMAP
E000
E000
E000
E000
E1C0
E380
E700
EE00
FC00
F800
FC00
FE00
EF00
E780
E3C0
E1E0
ENDCHAR
STARTCHAR l
ENCODING 108
SWIDTH 409 0
DWIDTH 9 0
BBX 7 16 2 0
BITMAP
E0
E0
E0
E0
E0
E0
E0
E0
E0
E0
E0
E0
E0
70
7E
1E
ENDCHAR
STARTCHAR m
ENCODING 109
SWIDTH 909 0
DWIDTH 20 0
BBX 17 12 2 0
BITMAP
EF1E00
FFFF00
F1E380
E1C380
E1C380
E1C380
E1C380
E1C380
E1C380
E1C380
E1C380
E1C380
ENDCHAR
STARTCHAR n
ENCODING 110
SWIDTH 590 0
DWIDTH 13 0
BBX 10 12 2 0
BITMAP
EF00
FF80
F1C0
E1C0
E1C0
E1C0
E1C0
E1C0
E1C0
E1C0
E1C0
E1C0
ENDCHAR
STARTCHAR o
ENCODING 111
SWIDTH 727 0
DWIDTH 16 0
BBX 13 12 2 0
BITMAP
0F80
3FE0
78F0
7070
E038
E038
E038
E038
7070
78F0
3FE0
0F80
ENDCHAR
STARTCHAR p
ENCODING 112
SWIDTH 636 0
DWIDTH 14 0
BBX 11 16 2 -4
BITMAP
EF00
FFC0
F1C0
E0E0
E0E0
E0E0
E0E0
E0E0
E0E0
F1C0
FFC0
EF00
E000
E000
E000
E000
ENDCHAR
STARTCHAR q
ENCODING 113
SWIDTH 636 0
DWIDTH 14 0
BBX 11 16 2 -4
BITMAP
1EE0
7FE0
71E0
E0E0
E0E0
E0E0
E0E0
E0E0
E0E0
71E0
7FE0
1EE0
00E0
00E0
00E0
00E0
ENDCHAR
STARTCHAR r
ENCODING 114
SWIDTH 454 0
DWIDTH 10 0
BBX 8 12 2 0
BITMAP
EE
FF
F3
E0
E0
E0
E0
E0
E0
E0
E0
E0
ENDCHAR
STARTCHAR s
ENCODING 115
SWIDTH 500 0
DWIDTH 11 0
BBX 9 12 1 0
BITMAP
1F00
3F80
7100
7000
7800
3E00
0F00
0780
0380
E380
FF00
3E00
ENDCHAR
STARTCHAR t
ENCODING 116
SWIDTH 454 0
DWIDTH 10 0
BBX 9 16 1 0
BITMAP
1800
3800
3800
3800
FF80
FF80
3800
3800
3800
3800
3800
3800
3800
1C00
1F80
0780
ENDCHAR
STARTCHAR u
ENCODING 117
SWIDTH 636 0
DWIDTH 14 0
BBX 11 12 2 0
BITMAP
E0E0
E0E0
E0E0
E0E0
E0E0
E0E0
E0E0
E0E0
E0E0
71E0
7FE0
1EE0
ENDCHAR
STARTCHAR v
ENCODING 118
SWIDTH 454 0
DWIDTH 10 0
BBX 12 12 0 0
BITMAP
E070
E060
70E0
70C0
70C0
39C0
3980
1980
1F00
1F00
0E00
0E00
ENDCHAR
STARTCHAR w
ENCODING 119
SWIDTH 772 0
DWIDTH 17 0
BBX 17 12 0 0
BITMAP
E00380
E08380
61C300
71C700
71C700
33E600
3BEE00
3B6E00
1F7C00
1E3C00
1E3C00
0E3800
ENDCHAR
STARTCHAR x
ENCODING 120
SWIDTH 545 0
DWIDTH 12 0
BBX 11 12 1 0
BITMAP
F0E0
70C0
3980
1F80
1F00
0E00
1F00
1F00
3B80
31C0
71C0
E0E0
ENDCHAR
STARTCHAR y
ENCODING 121
SWIDTH 590 0
DWIDTH 13 0
BBX 13 16 1 -4
BITMAP
E038
7030
7030
3870
3860
1C60
1CC0
0EC0
0FC0
0780
0780
0300
0700
0600
0E00
0E00
ENDCHAR
STARTCHAR z
ENCODING 122
SWIDTH 500 0
DWIDTH 11 0
BBX 10 12 1 0
BITMAP
7F80
7F80
0700
0600
0E00
1C00
1800
3800
7000
7000
FFC0
FFC0
ENDCHAR
STARTCHAR braceleft
ENCODING 123
SWIDTH 409 0
DWIDTH 9 0
BBX 7 20 1 -3
BITMAP
1E
38
38
38
38
38
38
38
30
E0
30
38
38
38
38
38
38
38
38
1E
ENDCHAR
STARTCHAR bar
ENCODING 124
SWIDTH 363 0
DWIDTH 8 0
BBX 2 20 3 -3
BITMAP
C0
C0
C0
C0
C0
C0
C0
C0
C0
C0
C0
C0
C0
C0
C0
C0
C0
C0
C0
C0
ENDCHAR
STARTCHAR braceright
ENCODING 125
SWIDTH 409 0
DWIDTH 9 0
BBX 7 20 1 -3
BITMAP
F0
38
38
38
38
38
38
38
18
0E
18
38
38
38
38
38
38
38
38
F0
ENDCHAR
STARTCHAR Euro
ENCODING 164
SWIDTH 636 0
DWIDTH 14 0
BBX 14 16 0 0
BITMAP
01F0
07FC
0F0C
1C04
1C00
FFF8
FFF0
3800
FFE0
FFC0
3800
1C00
1E00
0F0C
07FC
01F0
ENDCHAR
STARTCHAR degree
ENCODING 176
SWIDTH 409 0
DWIDTH 9 0
BBX 7 7 1 10
BITMAP
38
7C
C6
C6
C6
7C
38
ENDCHAR
STARTCHAR Agrave
ENCODING 192
SWIDTH 681 0
DWIDTH 15 0
BBX 14 21 1 0
BITMAP
1C00
0C00
0600
0000
0000
0700
0700
0780
0F80
0DC0
0DC0
1CE0
18E0
18E0
3070
3FF0
7FF8
7038
6038
E01C
E01C
ENDCHAR
STARTCHAR Acircumflex
ENCODING 194
SWIDTH 681 0
DWIDTH 15 0
BBX 14 21 1 0
BITMAP
0700
0F80
18C0
0000
0000
0700
0700
0780
0F80
0DC0
0DC0
1CE0
1CE0
18E0
3870
3FF0
7FF8
7038
6038
E01C
E01C
ENDCHAR
STARTCHAR Ccedilla
ENCODING 199
SWIDTH 636 0
DWIDTH 14 0
BBX 12 20 2 -4
BITMAP
07E0
1FF0
3C20
7000
7000
E000
E000
E000
E000
E000
E000
7000
7800
3C20
1FF0
07E0
03C0
00E0
07E0
07C0
ENDCHAR
STARTCHAR Egrave
ENCODING 200
SWIDTH 590 0
DWIDTH 13 0
BBX 10 21 2 0
BITMAP
7000
3000
1800
0000
0000
FF80
FF80
E000
E000
E000
E000
E000
FF00
FF00
E000
E000
E000
E000
E000
FFC0
FFC0
ENDCHAR
STARTCHAR Eacute
ENCODING 201
SWIDTH 590 0
DWIDTH 13 0
BBX 10 21 2 0
BITMAP
0E00
0C00
1800
0000
0000
FF80
FF80
E000
E000
E000
E000
E000
FF00
FF00
E000
E000
E000
E000
E000
FFC0
FFC0
ENDCHAR
STARTCHAR Ecircumflex
ENCODING 202
SWIDTH 590 0
DWIDTH 13 0
BBX 10 21 2 0
BITMAP
1C00
3E00
6300
0000
0000
FF80
FF80
E000
E000
E000
E000
E000
FF00
FF00
E000
E000
E000
E000
E000
FFC0
FFC0
ENDCHAR
STARTCHAR Edieresis
ENCODING 203
SWIDTH 590 0
DWIDTH 13 0
BBX 10 20 2 0
BITMAP
6300
6300
0000
0000
FF80
FF80
E000
E000
E000
E000
E000
FF00
FF00
E000
E000
E000
E000
E000
FFC0
FFC0
ENDCHAR
STARTCHAR Icircumflex
ENCODING 206
SWIDTH 363 0
DWIDTH 8 0
BBX 7 21 1 0
BITMAP
38
7C
C6
00
00
38
38
38
38
38
38
38
38
38
38
38
38
38
38
38
38
ENDCHAR
STARTCHAR Idieresis
ENCODING 207
SWIDTH 363 0
DWIDTH 8 0
BBX 7 20 1 0
BITMAP
C6
C6
00
00
38
38
38
38
38
38
38
38
38
38
38
38
38
38
38
38
ENDCHAR
STARTCHAR Ocircumflex
ENCODING 212
SWIDTH 863 0
DWIDTH 19 0
BBX 16 21 2 0
BITMAP
01C0
03E0
0630
0000
0000
07E0
1FF8
3C3C
700E
700E
E007
E007
E007
E007
E007
E007
700E
700E
3C3C
1FF8
07E0
ENDCHAR
STARTCHAR Ugrave
ENCODING 217
SWIDTH 681 0
DWIDTH 15 0
BBX 12 21 2 0
BITMAP
3800
1800
0C00
0000
0000
E070
E070
E070
E070
E070
E070
E070
E070
E070
E070
E070
E070
E070
70E0
7FC0
1F80
ENDCHAR
STARTCHAR Ucircumflex
ENCODING 219
SWIDTH 681 0
DWIDTH 15 0
BBX 12 21 2 0
BITMAP
0600
0F00
1980
0000
0000
E070
E070
E070
E070
E070
E070
E070
E070
E070
E070
E070
E070
E070
70E0
7FE0
1F80
ENDCHAR
STARTCHAR Udieresis
ENCODING 220
SWIDTH 681 0
DWIDTH 15 0
BBX 12 20 2 0
BITMAP
18C0
18C0
0000
0000
E070
E070
E070
E070
E070
E070
E070
E070
E070
E070
E070
E070
E070
70E0
7FE0
1F80
ENDCHAR
STARTCHAR agrave
ENCODING 224
SWIDTH 590 0
DWIDTH 13 0
BBX 10 17 2 0
BITMAP
3800
1800
0C00
0000
0000
1F00
3F80
01C0
01C0
0FC0
3FC0
79C0
E1C0
E1C0
E3C0
7FC0
3DC0
ENDCHAR
STARTCHAR acircumflex
ENCODING 226
SWIDTH 590 0
DWIDTH 13 0
BBX 10 17 2 0
BITMAP
0E00
1F00
3180
0000
0000
1F00
3F80
01C0
01C0
0FC0
3FC0
79C0
E1C0
E1C0
E3C0
7FC0
3DC0
ENDCHAR
STARTCHAR ccedilla
ENCODING 231
SWIDTH 545 0
DWIDTH 12 0
BBX 10 16 2 -4
BITMAP
0F80
3FC0
7880
7000
E000
E000
E000
E000
7000
7880
3FC0
0F80
0F00
0180
1F80
1F00
ENDCHAR
STARTCHAR egrave
ENCODING 232
SWIDTH 636 0
DWIDTH 14 0
BBX 11 17 2 0
BITMAP
3800
1800
0C00
0000
0000
1F00
3FC0
71C0
E0E0
E0E0
E7E0
FF80
FC00
E000
70E0
3FC0
1F80
ENDCHAR
STARTCHAR eacute
ENCODING 233
SWIDTH 636 0
DWIDTH 14 0
BBX 11 17 2 0
BITMAP
0700
0600
0C00
0000
0000
1F00
3FC0
71C0
E0E0
E0E0
E7E0
FF80
FC00
E000
70E0
3FC0
1F80
ENDCHAR
STARTCHAR ecircumflex
ENCODING 234
SWIDTH 636 0
DWIDTH 14 0
BBX 11 17 2 0
BITMAP
0E00
1F00
3180
0000
0000
1F00
3FC0
71C0
E0E0
E0E0
E7E0
FF80
FC00
E000
70E0
3FC0
1F80
ENDCHAR
STARTCHAR edieresis
ENCODING 235
SWIDTH 636 0
DWIDTH 14 0
BBX 11 16 2 0
BITMAP
3180
3180
0000
0000
1F00
3FC0
71C0
E0E0
E0E0
E7E0
FF80
F800
E000
70E0
3FC0
1F80
ENDCHAR
STARTCHAR icircumflex
ENCODING 238
SWIDTH 363 0
DWIDTH 8 0
BBX 7 17 1 0
BITMAP
38
7C
C6
00
00
18
38
38
38
38
38
38
38
38
38
38
38
ENDCHAR
STARTCHAR idieresis
ENCODING 239
SWIDTH 363 0
DWIDTH 8 0
BBX 7 16 1 0
BITMAP
C6
C6
00
00
18
38
38
38
38
38
38
38
38
38
38
38
ENDCHAR
STARTCHAR ocircumflex
ENCODING 244
SWIDTH 727 0
DWIDTH 16 0
BBX 13 17 2 0
BITMAP
0700
0F80
18C0
0000
0000
0F80
3FE0
78F0
7070
E038
E038
E038
E038
7070
78F0
3FE0
0F80
ENDCHAR
STARTCHAR ugrave
ENCODING 249
SWIDTH 590 0
DWIDTH 13 0
BBX 10 17 2 0
BITMAP
7000
3000
1800
0000
0000
E1C0
E1C0
E1C0
E1C0
E1C0
E1C0
E1C0
E1C0
E1C0
E3C0
7FC0
3DC0
ENDCHAR
STARTCHAR ucircumflex
ENCODING 251
SWIDTH 590 0
DWIDTH 13 0
BBX 10 17 2 0
BITMAP
0E00
1F00
3180
0000
0000
E1C0
E1C0
E1C0
E1C0
E1C0
E1C0
E1C0
E1C0
E1C0
E3C0
7FC0
3DC0
ENDCHAR
STARTCHAR udieresis
ENCODING 252
SWIDTH 590 0
DWIDTH 13 0
BBX 10 16 2 0
BITMAP
3180
3180
0000
0000
E1C0
E1C0
E1C0
E1C0
E1C0
E1C0
E1C0
E1C0
E1C0
E3C0
7FC0
3DC0
ENDCHAR
ENDFONT
